<svg id="Layer_1" enable-background="new 0 0 512 512" height="512" viewBox="0 0 512 512" width="512" xmlns="http://www.w3.org/2000/svg"><path d="m0 61v255c0 8.28 6.72 15 15 15h482c8.28 0 15-6.72 15-15v-255z" fill="#8bf2cf"/><path d="m512 61v255c0 8.28-6.72 15-15 15h-242v-270z" fill="#57d9ad"/><path d="m256 121c-.33 0-.67 0-1 .01-40.89.54-74 33.96-74 74.99s33.11 74.45 74 74.99c.33.01.67.01 1 .01 41.35 0 75-33.64 75-75s-33.65-75-75-75zm0 120c-.33 0-.67 0-1-.01-24.35-.53-44-20.51-44-44.99s19.65-44.46 44-44.99c.33-.01.67-.01 1-.01 24.81 0 45 20.19 45 45s-20.19 45-45 45z" fill="#57d9ad"/><path d="m331 196c0 41.36-33.65 75-75 75-.33 0-.67 0-1-.01v-30c.33.01.67.01 1 .01 24.81 0 45-20.19 45-45s-20.19-45-45-45c-.33 0-.67 0-1 .01v-30c.33-.01.67-.01 1-.01 41.35 0 75 33.64 75 75z" fill="#26bfa6"/><path d="m121 181h30v30h-30z" fill="#57d9ad"/><path d="m361 181h30v30h-30z" fill="#26bfa6"/><path d="m151 271h-90v-150h90v30h-60v90h60z" fill="#57d9ad"/><path d="m451 271h-90v-30h60v-90h-60v-30h90z" fill="#26bfa6"/><path d="m512 386v65h-512v-65l255-17z" fill="#26bfa6"/><path d="m512 386v65h-257v-82z" fill="#19a690"/><path d="m0 316h512v70h-512z" fill="#57d9ad"/><path d="m255 316h257v70h-257z" fill="#26bfa6"/></svg>